<svg id="Capa_1" enable-background="new 0 0 511.004 511.004" height="512" viewBox="0 0 511.004 511.004" width="512" xmlns="http://www.w3.org/2000/svg"><g><path d="m408.2 160.078h-204.35l-44.559-34.958h-159.291v321.827c0 25.939 21.086 47.595 47.015 48.272l353.829.199h.028c21.431-.001 40.316-14.442 45.931-35.127l63.791-235.027h-102.394zm-357.536 305.143-3.062-.002v.005c-9.56-.354-17.602-8.681-17.602-18.277v-291.827h118.928l44.559 34.958h184.713v35.187h-244.296l-60.074 221.135c-2.913 10.723-12.269 18.222-23.166 18.821zm420.701-209.956-53.516 197.17c-2.075 7.646-9.056 12.984-16.979 12.984-.003 0-.007 0-.01 0l-302.34-.171c1.774-3.443 3.211-7.117 4.262-10.982l54.061-199.001z"/><path d="m368.658 45.585c33.493 0 61.794 22.574 70.541 53.299l-17.785-13.815-18.402 23.691 53.996 41.942 53.996-41.942-18.404-23.691-21.965 17.062c-8.05-49.023-50.71-86.547-101.977-86.547-56.986 0-103.349 46.362-103.349 103.349h30c.001-40.444 32.905-73.348 73.349-73.348z"/><path d="m263.1 329.76h30v181.118h-30z" transform="matrix(.001 -1 1 .001 -142.528 697.952)"/></g></svg>