<svg id="Capa_1" enable-background="new 0 0 512 512" height="512" viewBox="0 0 512 512" width="512" xmlns="http://www.w3.org/2000/svg" xmlns:xlink="http://www.w3.org/1999/xlink"><linearGradient id="SVGID_1_" gradientUnits="userSpaceOnUse" x1="256" x2="256" y1="406" y2="31"><stop offset="0" stop-color="#a93aff"/><stop offset="1" stop-color="#ff81ff"/></linearGradient><linearGradient id="SVGID_2_" gradientUnits="userSpaceOnUse" x1="256" x2="256" y1="481" y2="121.023"><stop offset="0" stop-color="#ffbef9"/><stop offset="1" stop-color="#fff1ff"/></linearGradient><g><g><g><path d="m511.7 312.7-60-270c-1.5-6.901-7.8-11.7-14.7-11.7h-362c-6.899 0-13.2 4.799-14.7 11.7l-60 270c-.3 1.2-.3 2.099-.3 3.3l166 90h180l166-90c0-1.201 0-2.1-.3-3.3z" fill="url(#SVGID_1_)"/></g></g><g><g><path d="m394.6 316c-11.521 0-22.049 6.526-27.173 16.846l-17.292 34.825c-2.533 5.102-7.738 8.329-13.435 8.329h-161.401c-5.697 0-10.902-3.227-13.435-8.329l-17.292-34.825c-5.123-10.32-15.65-16.846-27.172-16.846h-117.4v150c0 8.284 6.716 15 15 15h482c8.284 0 15-6.716 15-15v-150zm-187.995-109.395 34.395-34.394v113.789c0 8.291 6.709 15 15 15s15-6.709 15-15v-113.789l34.395 34.395c5.859 5.859 15.351 5.859 21.211 0 5.859-5.859 5.859-15.352 0-21.211l-59.982-59.982c-5.856-5.871-15.428-5.835-21.248 0l-59.982 59.982c-5.859 5.859-5.859 15.352 0 21.211s15.352 5.859 21.211-.001z" fill="url(#SVGID_2_)"/></g></g></g></svg>